<svg width="257" height="72" viewBox="0 0 257 72" fill="none" xmlns="http://www.w3.org/2000/svg">
<path d="M0 10C0 4.47715 4.47715 0 10 0H112C117.523 0 122 4.47715 122 10V53C122 58.5228 117.523 63 112 63H0V10Z" fill="black"/>
<path d="M28.027 49.9822C26.2924 49.9822 24.7466 49.6795 23.3896 49.0741C22.0326 48.4568 20.9588 47.5488 20.1682 46.3499C19.3894 45.1391 19 43.6315 19 41.8272C19 40.3078 19.2773 39.0318 19.8319 37.999C20.3865 36.9663 21.1417 36.1354 22.0975 35.5063C23.0533 34.8771 24.1389 34.4023 25.3543 34.0818C26.5815 33.7613 27.8677 33.5358 29.2129 33.4052C30.7941 33.239 32.0685 33.0847 33.0361 32.9423C34.0037 32.7879 34.7058 32.5624 35.1424 32.2656C35.579 31.9689 35.7973 31.5297 35.7973 30.948V30.8412C35.7973 29.7135 35.4433 28.841 34.7353 28.2238C34.0391 27.6065 33.0479 27.2979 31.7617 27.2979C30.4047 27.2979 29.325 27.6006 28.5226 28.206C27.7202 28.7995 27.1892 29.5473 26.9296 30.4495L19.9558 29.8797C20.3098 28.2178 21.006 26.7815 22.0444 25.5707C23.0828 24.3481 24.4221 23.4103 26.0623 22.7575C27.7143 22.0927 29.6259 21.7603 31.7971 21.7603C33.3075 21.7603 34.753 21.9384 36.1336 22.2945C37.5261 22.6506 38.7592 23.2026 39.833 23.9504C40.9186 24.6983 41.7741 25.6598 42.3995 26.8349C43.0249 27.9982 43.3376 29.393 43.3376 31.0192V49.4658H36.1867V45.6732H35.9743C35.5377 46.5279 34.9536 47.2817 34.222 47.9346C33.4904 48.5756 32.6113 49.08 31.5847 49.448C30.5581 49.8041 29.3722 49.9822 28.027 49.9822ZM30.1864 44.7474C31.2956 44.7474 32.275 44.5278 33.1246 44.0885C33.9742 43.6375 34.6409 43.0321 35.1247 42.2724C35.6085 41.5127 35.8504 40.6521 35.8504 39.6906V36.7883C35.6144 36.9426 35.2899 37.085 34.8769 37.2156C34.4757 37.3343 34.0214 37.4471 33.514 37.5539C33.0066 37.6489 32.4992 37.7379 31.9918 37.821C31.4844 37.8922 31.0242 37.9575 30.6112 38.0168C29.7262 38.1474 28.9533 38.3551 28.2925 38.64C27.6317 38.9249 27.1184 39.3107 26.7526 39.7974C26.3868 40.2722 26.2039 40.8657 26.2039 41.578C26.2039 42.6107 26.5756 43.4001 27.319 43.9461C28.0742 44.4803 29.03 44.7474 30.1864 44.7474Z" fill="white"/>
<path d="M71.8081 29.9153L64.9051 30.3426C64.7871 29.7491 64.5334 29.215 64.144 28.7401C63.7546 28.2534 63.2413 27.8677 62.6041 27.5828C61.9787 27.286 61.2294 27.1376 60.3562 27.1376C59.188 27.1376 58.2027 27.3869 57.4003 27.8855C56.5979 28.3722 56.1967 29.025 56.1967 29.8441C56.1967 30.497 56.4563 31.0489 56.9755 31.5C57.4947 31.9511 58.3856 32.3131 59.6482 32.5861L64.5688 33.5833C67.212 34.1293 69.1826 35.0077 70.4806 36.2185C71.7786 37.4293 72.4276 39.0199 72.4276 40.9904C72.4276 42.7828 71.9025 44.3556 70.8523 45.7089C69.8139 47.0621 68.3861 48.1185 66.5689 48.8782C64.7635 49.6261 62.6808 50 60.3208 50C56.7218 50 53.8543 49.2462 51.7185 47.7387C49.5945 46.2193 48.3496 44.1538 47.9838 41.5423L55.4001 41.1506C55.6243 42.2546 56.1672 43.0974 57.0286 43.679C57.89 44.2488 58.9933 44.5337 60.3385 44.5337C61.6601 44.5337 62.7221 44.2785 63.5245 43.768C64.3387 43.2457 64.7517 42.5751 64.7635 41.756C64.7517 41.0675 64.4626 40.5037 63.8962 40.0645C63.3298 39.6134 62.4566 39.2692 61.2766 39.0318L56.5684 38.0881C53.9133 37.5539 51.9368 36.628 50.6388 35.3104C49.3526 33.9928 48.7095 32.3131 48.7095 30.2714C48.7095 28.5146 49.1815 27.0011 50.1255 25.731C51.0813 24.4609 52.4206 23.4816 54.1434 22.7931C55.878 22.1046 57.9077 21.7603 60.2323 21.7603C63.6661 21.7603 66.3683 22.4904 68.3389 23.9504C70.3213 25.4105 71.4777 27.3988 71.8081 29.9153Z" fill="white"/>
<path d="M84.0078 41.5958L84.0255 32.4971H85.123L93.8314 22.1165H102.487L90.787 35.8624H88.9993L84.0078 41.5958ZM77.1756 49.4658V13H84.7159V49.4658H77.1756ZM94.1677 49.4658L86.1673 37.5539L91.1941 32.1944L103 49.4658H94.1677Z" fill="white"/>
<path d="M135 55V8H144.755V46.8071H164.534V55H135Z" fill="black"/>
<path d="M170.994 55V8H180.749V46.8071H200.528V55H170.994Z" fill="black"/>
<path d="M206.988 8H219.018L231.724 39.5781H232.264L244.97 8H257V55H247.538V24.4087H247.155L235.215 54.7705H228.773L216.833 24.2939H216.45V55H206.988V8Z" fill="black"/>
<path d="M18.7811 58.2442C20.1708 59.0022 20.1708 60.9978 18.781 61.7558L2.9577 70.3867C1.62495 71.1137 3.43137e-07 70.149 4.09496e-07 68.6309L1.16403e-06 51.3691C1.23039e-06 49.851 1.62496 48.8863 2.95771 49.6133L18.7811 58.2442Z" fill="black"/>
</svg>
