<svg width="89" height="28" viewBox="0 0 89 28" fill="none" xmlns="http://www.w3.org/2000/svg">
<path d="M7.8181 28C6.37765 28 5.14248 27.7997 4.11259 27.3991C3.08966 27.0055 2.27549 26.4679 1.67009 25.7861C1.06468 25.1044 0.671514 24.3384 0.490588 23.4879L4.60318 22.9292C4.72843 23.2525 4.92676 23.5547 5.19815 23.8358C5.46954 24.117 5.82791 24.3419 6.27327 24.5105C6.72558 24.6862 7.27532 24.7741 7.92248 24.7741C8.88974 24.7741 9.68651 24.5351 10.3128 24.0572C10.946 23.5863 11.2627 22.7957 11.2627 21.6852V18.7229H11.0748C10.8799 19.1727 10.5877 19.5979 10.198 19.9985C9.80828 20.3991 9.30726 20.7259 8.69489 20.9789C8.08253 21.2319 7.35186 21.3584 6.5029 21.3584C5.29905 21.3584 4.20305 21.0773 3.21492 20.5151C2.23374 19.9458 1.45089 19.0778 0.866358 17.9111C0.288786 16.7374 0 15.2545 0 13.4623C0 11.628 0.295745 10.0959 0.887234 8.86596C1.47872 7.63604 2.26506 6.71536 3.24623 6.10392C4.23437 5.49247 5.31644 5.18675 6.49246 5.18675C7.39014 5.18675 8.14168 5.34137 8.74708 5.6506C9.35249 5.95281 9.8396 6.33233 10.2084 6.78916C10.5842 7.23896 10.873 7.68173 11.0748 8.11747H11.2418V5.39759H15.6571V21.7485C15.6571 23.126 15.3231 24.2786 14.655 25.2063C13.987 26.134 13.0615 26.8298 11.8785 27.2937C10.7025 27.7646 9.34901 28 7.8181 28ZM7.91204 17.9849C8.62879 17.9849 9.23419 17.8057 9.72826 17.4473C10.2293 17.0818 10.612 16.5617 10.8764 15.887C11.1478 15.2053 11.2835 14.3901 11.2835 13.4413C11.2835 12.4925 11.1513 11.6702 10.8869 10.9744C10.6225 10.2716 10.2397 9.72691 9.7387 9.34036C9.23767 8.95381 8.62879 8.76054 7.91204 8.76054C7.18138 8.76054 6.56553 8.96084 6.06451 9.36145C5.56348 9.75502 5.18423 10.3032 4.92676 11.006C4.66929 11.7088 4.54055 12.5206 4.54055 13.4413C4.54055 14.376 4.66929 15.1842 4.92676 15.866C5.19119 16.5407 5.57044 17.0643 6.06451 17.4367C6.56553 17.8022 7.18138 17.9849 7.91204 17.9849Z" fill="black"/>
<path d="M19.1956 21.5904V5.39759H23.5065V8.22289H23.6735C23.9658 7.21787 24.4563 6.45884 25.1453 5.94578C25.8342 5.4257 26.6275 5.16566 27.5251 5.16566C27.7478 5.16566 27.9879 5.17972 28.2454 5.20783C28.5028 5.23594 28.729 5.2746 28.9238 5.32379V9.30873C28.7151 9.24548 28.4263 9.18926 28.0575 9.14006C27.6887 9.09086 27.3512 9.06627 27.045 9.06627C26.3909 9.06627 25.8063 9.21034 25.2914 9.49849C24.7834 9.77962 24.3798 10.1732 24.0806 10.6792C23.7883 11.1852 23.6422 11.7686 23.6422 12.4292V21.5904H19.1956Z" fill="black"/>
<path d="M37.7205 21.9066C36.0991 21.9066 34.6969 21.5587 33.514 20.863C32.3379 20.1601 31.4298 19.1832 30.7896 17.9322C30.1494 16.6742 29.8293 15.2159 29.8293 13.5572C29.8293 11.8845 30.1494 10.4227 30.7896 9.17169C31.4298 7.91365 32.3379 6.93675 33.514 6.24096C34.6969 5.53815 36.0991 5.18675 37.7205 5.18675C39.3419 5.18675 40.7406 5.53815 41.9166 6.24096C43.0996 6.93675 44.0112 7.91365 44.6513 9.17169C45.2915 10.4227 45.6117 11.8845 45.6117 13.5572C45.6117 15.2159 45.2915 16.6742 44.6513 17.9322C44.0112 19.1832 43.0996 20.1601 41.9166 20.863C40.7406 21.5587 39.3419 21.9066 37.7205 21.9066ZM37.7414 18.4277C38.479 18.4277 39.0948 18.2169 39.5889 17.7952C40.083 17.3665 40.4553 16.7831 40.7058 16.0452C40.9632 15.3072 41.092 14.4674 41.092 13.5256C41.092 12.5838 40.9632 11.744 40.7058 11.006C40.4553 10.2681 40.083 9.68474 39.5889 9.25602C39.0948 8.82731 38.479 8.61295 37.7414 8.61295C36.9968 8.61295 36.3705 8.82731 35.8625 9.25602C35.3615 9.68474 34.9822 10.2681 34.7248 11.006C34.4743 11.744 34.349 12.5838 34.349 13.5256C34.349 14.4674 34.4743 15.3072 34.7248 16.0452C34.9822 16.7831 35.3615 17.3665 35.8625 17.7952C36.3705 18.2169 36.9968 18.4277 37.7414 18.4277Z" fill="black"/>
<path d="M52.9496 12.2289V21.5904H48.503V5.39759H52.7408V8.25452H52.9287C53.2836 7.31275 53.8786 6.56777 54.7136 6.01958C55.5487 5.46436 56.5612 5.18675 57.7511 5.18675C58.8645 5.18675 59.8352 5.43273 60.6633 5.9247C61.4914 6.41667 62.1351 7.11948 62.5944 8.03313C63.0536 8.93976 63.2833 10.0221 63.2833 11.2801V21.5904H58.8367V12.0813C58.8436 11.0904 58.5931 10.3173 58.0851 9.76205C57.5771 9.1998 56.8778 8.91867 55.9871 8.91867C55.3886 8.91867 54.8598 9.04869 54.4005 9.30873C53.9482 9.56878 53.5933 9.94829 53.3358 10.4473C53.0853 10.9393 52.9566 11.5331 52.9496 12.2289Z" fill="black"/>
<path d="M70.8169 16.9307L70.8274 11.5437H71.4745L76.61 5.39759H81.7142L74.8147 13.5361H73.7605L70.8169 16.9307ZM66.7878 21.5904V0H71.2345V21.5904H66.7878ZM76.8084 21.5904L72.0904 14.5377L75.0548 11.3645L82.0169 21.5904H76.8084Z" fill="black"/>
<path d="M86.4949 21.8645C85.806 21.8645 85.2145 21.6185 84.7204 21.1265C84.2333 20.6275 83.9897 20.0301 83.9897 19.3343C83.9897 18.6456 84.2333 18.0552 84.7204 17.5633C85.2145 17.0713 85.806 16.8253 86.4949 16.8253C87.1629 16.8253 87.7474 17.0713 88.2485 17.5633C88.7495 18.0552 89 18.6456 89 19.3343C89 19.7982 88.8817 20.2234 88.6451 20.6099C88.4155 20.9895 88.1128 21.2952 87.737 21.5271C87.3612 21.752 86.9472 21.8645 86.4949 21.8645Z" fill="black"/>
</svg>
